<svg xmlns="http://www.w3.org/2000/svg" width="546" height="435" fill="none"><path fill="#1E73FE" d="M174.211 52.212c-58.844-53.6-114.272 22.333-134.63 66.999L.25 136.711v169.5l66.37-138.5c24.455 23.667 97.834 76.8 195.706 100 122.34 29 146.165-48.5 219.72-131 58.844-66 66.117-121.166 62.399-140.5v-190.5c-5.295-8.333-30.443 9.6-88.682 148-72.799 173-207.997 165.5-281.552 98.5Z"/><path fill="#21FFA2" d="M174.211 180.5c-58.844-53.6-114.272 22.333-134.63 67L.25 265v169.5L66.62 296c24.455 23.667 97.834 76.8 195.706 100 122.34 29 146.165-48.5 219.72-131 58.844-66 66.117-121.167 62.399-140.5V-66c-5.295-8.333-30.443 9.6-88.682 148-72.799 173-207.997 165.5-281.552 98.5Z"/></svg>