<svg width="64" height="64" viewBox="0 0 704 485" fill="none" xmlns="http://www.w3.org/2000/svg">
    <path d="M397.028 435.031c-30.818 28.349-84.625 40.355-101.282 43.508-3.231.604-5.07.893-5.07.893l-57.301 5.124c-22.069-.92-42.352-5.649-60.822-13.478-174.53-74.011-185.59-425.671 24.697-452.05l27.691-.866h.026l30.372-.946S433.81 401.14 397.028 435.03Z"
          fill="#1E73FE"/>
    <path d="m255.288 17.184-25.17 3.1c.578.228 1.148.464 1.708.71-10.404 4.465-23.225 10.955-36.913 20.282-2.969 2.049-19.994 13.82-36.256 31.133-9.301 9.878-36.572 43.402-50.786 87.961-17.996 56.355-13.95 118.727 10.93 183.331 2.18 5.649 2.023 12.06-.999 17.288a19.763 19.763 0 0 1-2.285 3.179c-5.885 6.673-16.105 9.169-24.355 7.698-18.444-3.337-26.746-26.641-28.322-25.748-1.97 1.104 12.61 35.521 35.6 64.999 6.935 8.88 12.952 15.186 16.183 18.47.867.841 12.322 12.322 24.671 21.15 11.034 7.881 22.909 13.767 33.734 18.102a25.19 25.19 0 0 1-.526 2.206c18.47 7.83 38.753 12.559 60.822 13.478l36.414-3.257c.026 0 8.46-.762 8.512-.762.053 0 8.959-.815 8.985-.815 2.803-.385 5.614-.779 8.434-1.182h.026c16.657-3.153 70.464-15.16 101.282-43.508 36.782-33.892-141.689-417.815-141.689-417.815Z"
          fill="#1551D4"/>
    <path d="M548.667 220.299c11.56 129.367-71.409 242.471-185.302 252.639-125.899 11.244-215.594-86.438-227.154-215.805-11.56-129.34 45.61-243.023 185.065-255.345C448.174-9.404 537.133 90.958 548.667 220.3Z"
          fill="#1E73FE"/>
    <path d="M475.704 55.867c31.869 37.623 52.02 88.198 57.065 144.395.578 6.621.91 13.189.998 19.705.053 3.021-4.388 3.336-4.808.341a34.11 34.11 0 0 0-.052-.446c-12.611-90.221-76.664-155.85-143.029-146.576-66.392 9.274-109.978 89.958-97.367 180.179 12.611 90.22 76.637 155.823 143.029 146.549l.473-.053c8.512-1.234 12.847 9.8 5.701 14.582-24.959 16.657-53.675 27.323-84.782 30.108-111.16 9.931-193.184-67.389-215.463-175.686 15.816 123.43 103.83 214.885 225.867 203.982 113.892-10.167 196.861-123.272 185.301-252.639-5.885-66.023-31.947-124.506-72.933-164.44Z"
          fill="#1551D4"/>
    <path d="M512.277 220.358c7.383 82.733-34.916 154.116-94.477 159.45-59.586 5.307-113.866-57.459-121.249-140.192-7.382-82.759 34.917-154.142 94.477-159.45 59.561-5.333 113.84 57.433 121.249 140.192Z"
          fill="#000371"/>
    <path fill-rule="evenodd" clip-rule="evenodd"
          d="M410.809 385.567c-59.482 0-112.342-63.291-119.672-145.473-7.646-85.596 36.939-159.764 99.416-165.36 62.45-5.57 119.488 59.534 127.133 145.13 7.646 85.597-36.965 159.791-99.416 165.361-2.496.21-4.991.342-7.461.342ZM398.093 85.295c-2.19 0-4.388.097-6.595.29-56.46 5.044-96.631 73.931-89.537 153.537 6.831 76.533 54.91 135.568 108.769 135.568 2.19 0 4.379-.096 6.568-.289 56.487-5.045 96.658-73.932 89.538-153.564-6.831-76.533-54.884-135.542-108.743-135.542Z"
          fill="#000371"/>
    <path d="M249.178 50.567s-48.394 23.41-58.982 88.04c-1.498 34.969 42.299 42.063 55.409 4.151 10.877-31.527 25.668-58.535 49.209-75.35 19.284-19.757-6.726-39.777-45.636-16.84ZM228.287 223.891c1.34 15.212-8.959 28.532-23.042 29.793-14.082 1.261-26.614-10.036-27.954-25.248-1.366-15.185 8.959-28.532 23.041-29.793 14.083-1.261 26.589 10.036 27.955 25.248Z"
          fill="#fff"/>
    <path d="M343.773 211.346c3.22-56.602 4.085-70.597 4.349-70.765.192-.096.649-.12 1.057-.072.408.072 24.938 3.14 54.538 6.83 29.599 3.69 54.225 6.83 54.706 6.949.504.144.961.384 1.009.528.048.167-.769 10.496-1.802 22.957-1.37 16.176-1.994 22.694-2.211 22.79-.144.095-1.033.119-1.97.047-.937-.047-7.832-.407-15.376-.79-7.544-.36-13.718-.623-13.743-.575-.048.047 1.082 1.557 2.499 3.354 1.442 1.774 4.805 6.015 7.52 9.418 2.715 3.379 6.271 7.86 7.928 9.945 1.658 2.085 3.34 4.194 3.724 4.697.385.503 1.874 2.349 3.268 4.098 1.393 1.773 4.637 5.847 7.207 9.082 2.571 3.235 5.262 6.614 5.983 7.549.721.934 2.066 2.612 3.003 3.762.913 1.15 2.499 3.115 3.484 4.385.985 1.247 1.874 2.277 1.994 2.277.096 0 .961-.911 1.898-2.013a174.379 174.379 0 0 0 3.075-3.618c.721-.887 2.355-2.828 3.604-4.29 1.273-1.462 2.571-2.995 2.883-3.403.336-.407 1.465-1.773 2.523-2.995a404.276 404.276 0 0 1 3.723-4.41c1.01-1.198 2.956-3.474 4.349-5.104l.453-.539c1.282-1.525 2.756-3.278 3.463-4.134.769-.958 2.547-3.067 3.964-4.697 1.394-1.629 3.148-3.666 3.869-4.553.72-.863 3.219-3.834 5.549-6.614 2.331-2.78 4.613-5.464 5.094-5.991.745-.886.865-.934 1.249-.599.24.192 1.898 2.133 3.7 4.314 1.778 2.18 3.94 4.816 4.781 5.871.865 1.054 1.898 2.348 2.306 2.851.409.528 1.346 1.654 2.067 2.541.72.886 2.522 3.043 3.988 4.816 1.441 1.774 3.556 4.338 4.685 5.728a194.34 194.34 0 0 0 2.571 3.115c.312.335 1.153 1.342 1.85 2.276.696.935 1.489 1.894 1.777 2.157.289.264.529.623.505.767 0 .168-.264.743-.601 1.27-.336.527-.6 1.007-.6 1.078 0 .072-.817 1.486-1.826 3.164-1.009 1.701-2.115 3.546-2.451 4.145-.336.6-.793 1.366-1.033 1.726-.264.383-.456.719-.456.791 0 .072-.361.695-.793 1.366-.433.695-2.403 4.025-4.349 7.38-1.97 3.355-4.18 7.118-4.925 8.34-.745 1.222-1.466 2.204-1.586 2.181-.12 0-2.667-2.708-5.646-5.991-2.979-3.307-5.742-6.327-6.126-6.71-.577-.551-.769-.647-.985-.408-.144.168-2.259 2.804-4.685 5.824-2.451 3.019-4.661 5.799-4.901 6.134-.265.36-2.859 3.595-5.766 7.189l-.008.009c-2.904 3.592-5.807 7.181-6.431 7.971-.625.815-1.562 1.989-2.09 2.66-.505.647-1.586 2.013-2.403 2.996-.793.982-2.763 3.451-4.397 5.488a681.84 681.84 0 0 1-3.772 4.696c-.456.552-3.339 4.146-6.366 7.98-3.364 4.242-5.694 6.974-5.959 6.974-.24.024-1.585-1.294-3.243-3.139-1.538-1.726-3.844-4.29-5.094-5.704a2245.41 2245.41 0 0 1-7.568-8.507 5342.562 5342.562 0 0 0-9.466-10.664 1596.382 1596.382 0 0 1-5.886-6.59l-.125-.141a212.362 212.362 0 0 0-2.782-3.094c-.649-.743-2.33-2.612-3.724-4.194-1.393-1.557-3.507-3.93-4.709-5.248a1093.47 1093.47 0 0 0-6.342-7.093 2682.41 2682.41 0 0 1-5.43-6.111c-.673-.791-3.604-4.098-6.511-7.333-2.883-3.235-6.799-7.644-8.721-9.801a554.577 554.577 0 0 1-5.718-6.446c-1.25-1.39-2.331-2.564-2.403-2.612-.096-.024-.937 11.239-1.898 25.042-1.081 15.864-1.826 25.21-1.994 25.354-.144.119-10.235.958-22.416 1.821-12.181.887-22.295 1.534-22.463 1.438a.844.844 0 0 1-.385-.384c-.072-.12 1.706-31.991 3.94-70.789Z"
          fill="#1551D4"/>
    <path fill-rule="evenodd" clip-rule="evenodd"
          d="M703.165 368.058c-.184 17.025-6.306 33.025-17.235 45.058-9.984 11.008-22.884 17.55-36.782 18.785a48.152 48.152 0 0 1-5.517.21c-24.697-.289-45.662-17.393-54.069-41.301-16.815-2.68-33.472-15.816-52.415-30.739-3.52-2.785-7.12-5.596-10.745-8.407l-2.68-2.05c-20.808-15.842-43.797-30.923-70.595-35.336-6.437-1.025-13.084-1.472-19.993-1.156-73.065 3.31-185.854 100.493-186.957 101.491-.281.228-.561.438-.841.631-7.899 5.762-15.755 11.034-23.567 15.816-32.867 20.125-64.736 31.606-95.317 34.338-12.349 1.104-24.487.789-36.388-.972-41.721-6.147-75.298-35.652-85.57-75.166-9.17-35.363-.316-75.088 23.698-106.221 9.852-12.768 21.622-23.514 34.969-32.026 20.597-13.163 44.9-21.045 71.619-23.068.053 8.066.42 16.237 1.051 24.46-25.222 2.05-47.764 10.22-66.076 23.777v.026a111.742 111.742 0 0 0-22.2 21.78C28.113 323.184 20.888 355 28.192 383.112c7.776 29.977 33.471 52.388 65.445 57.117 33.813 4.992 70.516-3.914 109.373-26.456 9.065-5.255 18.234-11.245 27.534-17.997 8.959-7.725 121.669-103.462 201.486-107.088a121.301 121.301 0 0 1 32.316 2.837c26.141 5.885 48.499 19.626 68.02 34.024 1.191.875 2.364 1.742 3.52 2.601 5.702 4.282 11.166 8.591 16.395 12.716 12.19 9.615 23.908 18.837 33.418 23.251.736-16.079 6.779-31.081 17.157-42.536 11.297-12.453 26.325-19.205 42.299-19.021 16 .21 30.844 7.304 41.852 20.02 10.641 12.295 16.368 28.427 16.158 45.478Zm-24.644-5.15c-.814-9.195-4.282-17.707-10.036-24.328-6.332-7.33-14.739-11.429-23.593-11.534a28.823 28.823 0 0 0-2.995.105c-7.803.71-15.133 4.493-20.913 10.877-6.542 7.225-10.378 16.815-10.851 27.219-.052.551-.052 1.129-.052 1.681-.106 8.197 1.891 15.869 5.412 22.279 6.016 10.982 16.473 18.313 28.427 18.444 8.88.131 17.366-3.783 23.882-10.982 6.91-7.593 10.772-17.866 10.903-28.926a49.042 49.042 0 0 0-.184-4.835Z"
          fill="#fff"/>
    <path d="M678.672 367.808c-.079 6.752-1.55 13.215-4.283 18.969l.079-.079c6.91-7.619 10.798-17.892 10.93-28.926a49.351 49.351 0 0 0-.184-4.835c-.841-9.221-4.309-17.734-10.036-24.328-6.358-7.33-14.739-11.455-23.62-11.56a34.5 34.5 0 0 0-2.995.131c-7.776.683-15.107 4.467-20.913 10.851-2.653 2.942-4.834 6.305-6.568 9.931 5.78-6.306 13.058-10.063 20.782-10.746a28.823 28.823 0 0 1 2.995-.105c8.854.105 17.261 4.204 23.593 11.534 5.754 6.621 9.222 15.133 10.036 24.329.14 1.593.201 3.205.184 4.834ZM134.736 228.043c.052 8.066.42 16.237 1.051 24.46-25.222 2.049-47.764 10.22-66.076 23.777 14.187-19.915-6.595-25.17-6.595-25.17 20.598-13.162 44.9-21.044 71.62-23.067Z"
          fill="#B3B3D4"/>
</svg>