<svg width="2116" height="485" viewBox="0 0 2116 485" fill="none" xmlns="http://www.w3.org/2000/svg">
<path d="M886.07 353.07C867.174 353.07 850.179 350.192 835.084 344.436C819.989 338.681 807.065 330.481 796.314 319.839C785.672 309.088 777.527 296.382 771.88 281.721C766.233 266.952 763.409 250.608 763.409 232.689C763.409 209.45 768.133 188.707 777.581 170.463C787.029 152.11 800.604 137.721 818.305 127.295C836.007 116.87 857.183 111.657 881.835 111.657C889.328 111.657 896.713 112.146 903.989 113.123C911.373 114.101 918.432 115.404 925.165 117.033C931.898 118.662 938.143 120.562 943.898 122.734C949.763 124.798 954.975 127.024 959.536 129.413L955.464 179.259C946.993 173.938 938.849 169.703 931.03 166.553C923.21 163.296 915.663 160.961 908.387 159.549C901.219 158.029 894.378 157.268 887.862 157.268C874.613 157.268 862.83 160.201 852.513 166.065C842.197 171.82 834.052 180.345 828.079 191.639C822.215 202.825 819.283 216.508 819.283 232.689C819.283 243.006 820.803 252.78 823.844 262.011C826.884 271.133 831.446 279.223 837.527 286.282C843.717 293.341 851.427 298.88 860.658 302.898C869.889 306.916 880.695 308.925 893.075 308.925C898.179 308.925 903.283 308.599 908.387 307.947C913.6 307.187 918.812 306.047 924.025 304.527C929.238 303.006 934.45 300.943 939.663 298.337C944.876 295.622 950.088 292.364 955.301 288.563L958.233 337.758C953.564 340.364 948.405 342.644 942.758 344.599C937.111 346.554 931.138 348.129 924.839 349.323C918.649 350.626 912.242 351.549 905.618 352.092C899.102 352.744 892.586 353.07 886.07 353.07Z" fill="white"/>
<path d="M1189.63 348.672C1189.63 337.052 1189.63 325.812 1189.63 314.952C1189.63 303.984 1189.63 291.766 1189.63 278.3V262.011C1189.63 251.26 1189.63 241.649 1189.63 233.178C1189.63 224.599 1189.63 216.563 1189.63 209.069C1189.63 201.468 1189.63 193.811 1189.63 186.101L1238.33 184.635C1238.33 192.454 1238.33 200.219 1238.33 207.929C1238.33 215.64 1238.33 223.839 1238.33 232.526C1238.33 241.214 1238.33 251.042 1238.33 262.011V278.3C1238.33 291.766 1238.33 303.984 1238.33 314.952C1238.33 325.812 1238.33 337.052 1238.33 348.672H1189.63ZM1213.57 161.015C1204.56 161.015 1197.34 158.897 1191.91 154.662C1186.59 150.318 1183.93 143.314 1183.93 133.648C1183.93 124.961 1186.59 118.336 1191.91 113.775C1197.34 109.105 1204.67 106.771 1213.9 106.771C1223.13 106.771 1230.35 109.214 1235.56 114.101C1240.89 118.879 1243.55 125.395 1243.55 133.648C1243.55 143.314 1240.89 150.318 1235.56 154.662C1230.24 158.897 1222.91 161.015 1213.57 161.015Z" fill="white"/>
<path d="M1279.32 348.672C1279.32 337.052 1279.32 325.812 1279.32 314.952C1279.32 303.984 1279.32 291.766 1279.32 278.3V262.011C1279.32 249.522 1279.32 236.979 1279.32 224.382C1279.32 211.784 1279.32 199.024 1279.32 186.101L1320.21 183.658L1322.33 212.002H1326.4C1330.09 206.68 1334.55 201.739 1339.76 197.178C1344.97 192.508 1350.94 188.762 1357.68 185.938C1364.52 183.115 1372.28 181.703 1380.97 181.703C1397.26 181.703 1409.59 186.535 1417.95 196.201C1426.31 205.757 1430.49 220.092 1430.49 239.205C1430.49 246.373 1430.49 253.051 1430.49 259.241C1430.49 265.323 1430.49 271.676 1430.49 278.3C1430.49 291.549 1430.49 303.712 1430.49 314.789C1430.49 325.757 1430.49 337.052 1430.49 348.672H1381.95C1381.95 337.052 1381.95 325.812 1381.95 314.952C1381.95 304.092 1381.95 292.744 1381.95 280.907V254.843C1381.95 245.287 1380.37 238.119 1377.23 233.341C1374.08 228.454 1368.43 226.011 1360.28 226.011C1355.61 226.011 1351.32 226.988 1347.42 228.943C1343.51 230.789 1339.92 233.341 1336.66 236.599C1333.41 239.748 1330.53 243.278 1328.03 247.187V280.907C1328.03 293.07 1328.03 304.527 1328.03 315.278C1328.03 325.92 1328.03 337.052 1328.03 348.672H1279.32Z" fill="white"/>
<path d="M1690.35 353.07C1675.58 353.07 1662.71 350.735 1651.74 346.065C1640.88 341.396 1631.87 335.043 1624.7 327.006C1617.64 318.97 1612.32 309.794 1608.74 299.477C1605.26 289.052 1603.53 278.192 1603.53 266.898C1603.53 250.717 1606.78 236.219 1613.3 223.404C1619.92 210.481 1629.59 200.327 1642.3 192.943C1655.11 185.449 1670.8 181.703 1689.37 181.703C1703.71 181.703 1716.25 183.875 1727 188.219C1737.86 192.454 1746.88 198.481 1754.04 206.3C1761.32 214.011 1766.75 223.078 1770.33 233.504C1773.92 243.821 1775.71 254.952 1775.71 266.898C1775.71 283.296 1772.4 298.011 1765.77 311.043C1759.15 323.966 1749.48 334.228 1736.78 341.83C1724.07 349.323 1708.59 353.07 1690.35 353.07ZM1690.19 313.323C1698.33 313.323 1705.01 311.151 1710.22 306.807C1715.55 302.355 1719.51 296.599 1722.12 289.54C1724.83 282.481 1726.19 274.934 1726.19 266.898C1726.19 257.341 1724.67 249.196 1721.63 242.463C1718.59 235.622 1714.35 230.409 1708.92 226.825C1703.49 223.241 1697.19 221.45 1690.02 221.45C1681.99 221.45 1675.2 223.459 1669.66 227.477C1664.23 231.495 1660.11 236.925 1657.28 243.766C1654.57 250.608 1653.21 258.318 1653.21 266.898C1653.21 274.934 1654.57 282.481 1657.28 289.54C1660.11 296.599 1664.23 302.355 1669.66 306.807C1675.2 311.151 1682.04 313.323 1690.19 313.323Z" fill="white"/>
<path d="M2029.71 353.07C2014.94 353.07 2002.07 350.735 1991.11 346.065C1980.25 341.396 1971.23 335.043 1964.06 327.006C1957.01 318.97 1951.68 309.794 1948.1 299.477C1944.63 289.052 1942.89 278.192 1942.89 266.898C1942.89 250.717 1946.15 236.219 1952.66 223.404C1959.29 210.481 1968.95 200.327 1981.66 192.943C1994.47 185.449 2010.16 181.703 2028.73 181.703C2043.07 181.703 2055.61 183.875 2066.36 188.219C2077.22 192.454 2086.24 198.481 2093.4 206.3C2100.68 214.011 2106.11 223.078 2109.69 233.504C2113.28 243.821 2115.07 254.952 2115.07 266.898C2115.07 283.296 2111.76 298.011 2105.13 311.043C2098.51 323.966 2088.84 334.228 2076.14 341.83C2063.43 349.323 2047.96 353.07 2029.71 353.07ZM2029.55 313.323C2037.69 313.323 2044.37 311.151 2049.59 306.807C2054.91 302.355 2058.87 296.599 2061.48 289.54C2064.19 282.481 2065.55 274.934 2065.55 266.898C2065.55 257.341 2064.03 249.196 2060.99 242.463C2057.95 235.622 2053.71 230.409 2048.28 226.825C2042.85 223.241 2036.55 221.45 2029.39 221.45C2021.35 221.45 2014.56 223.459 2009.02 227.477C2003.59 231.495 1999.47 236.925 1996.64 243.766C1993.93 250.608 1992.57 258.318 1992.57 266.898C1992.57 274.934 1993.93 282.481 1996.64 289.54C1999.47 296.599 2003.59 302.355 2009.02 306.807C2014.56 311.151 2021.4 313.323 2029.55 313.323Z" fill="white"/>
<path d="M1447.32 175.676C1442.11 165.793 1437.11 156.345 1432.33 147.332C1427.66 138.318 1422.23 128.001 1416.04 116.381H1476.97C1480.99 125.395 1484.41 133.16 1487.23 139.676C1490.05 146.083 1492.71 152.164 1495.21 157.92C1497.82 163.676 1500.64 170.029 1503.68 176.979L1518.67 210.861H1523.07L1537.89 177.956C1541.26 170.68 1544.24 164.056 1546.85 158.083C1549.56 152.11 1552.39 145.866 1555.32 139.35C1558.25 132.834 1561.73 125.178 1565.75 116.381H1624.88L1609.24 146.354C1604.03 156.237 1598.98 165.956 1594.09 175.513L1547.83 263.933V272.925V312.346V348.672H1494.07V312.346V272.925V264.567L1447.32 175.676Z" fill="white"/>
<path d="M1786.67 175.675C1781.45 165.793 1776.46 156.345 1771.68 147.331C1767.01 138.318 1761.58 128.001 1755.39 116.381H1816.31C1820.33 125.394 1823.75 133.159 1826.58 139.675C1829.4 146.082 1832.06 152.164 1834.56 157.919C1837.16 163.675 1839.99 170.028 1843.03 176.978L1858.02 210.861H1862.41L1877.24 177.956C1880.6 170.68 1883.59 164.055 1886.2 158.082C1888.91 152.109 1891.73 145.865 1894.67 139.349C1897.6 132.833 1901.07 125.177 1905.09 116.381H1964.22L1948.59 146.354C1943.37 156.236 1938.32 165.956 1933.44 175.512L1887.17 263.932V272.924V312.345V348.671H1833.42V312.345V272.924V264.566L1786.67 175.675Z" fill="white"/>
<path fill-rule="evenodd" clip-rule="evenodd" d="M1164.63 261.518C1164.63 312.086 1123.64 353.08 1073.07 353.08C1036.96 353.08 1005.73 332.175 990.824 301.808C984.857 289.65 981.506 275.975 981.506 261.518C981.506 210.95 1022.5 169.956 1073.07 169.956C1123.64 169.956 1164.63 210.95 1164.63 261.518ZM1073.07 337.682C1115.13 337.682 1149.23 303.581 1149.23 261.516C1149.23 219.451 1115.13 185.35 1073.07 185.35C1031 185.35 996.9 219.451 996.9 261.516C996.9 303.581 1031 337.682 1073.07 337.682Z" fill="white"/>
<path fill-rule="evenodd" clip-rule="evenodd" d="M1139.55 261.518C1139.55 298.237 1109.79 328.003 1073.07 328.003C1036.35 328.003 1006.58 298.237 1006.58 261.518C1006.58 224.799 1036.35 195.033 1073.07 195.033C1109.79 195.033 1139.55 224.799 1139.55 261.518ZM1073.07 204.468C1055.53 204.468 1039.84 212.378 1029.38 224.825C1048.48 205.754 1110.96 197.095 1129.98 257.478C1127.9 227.855 1103.22 204.468 1073.07 204.468Z" fill="white"/>
<path d="M396.081 434.975C365.264 463.323 311.457 475.33 294.8 478.482C291.568 479.087 289.729 479.376 289.729 479.376L232.428 484.499C210.359 483.579 190.077 478.85 171.607 471.021C-2.92286 397.011 -13.9837 45.3498 196.303 18.972L223.995 18.105H224.021L254.393 17.1592C254.393 17.1592 432.863 401.083 396.081 434.975Z" fill="#1E73FE"/>
<path d="M254.341 17.127C245.952 18.1603 237.562 19.1937 229.172 20.2271C229.75 20.4548 230.319 20.6913 230.88 20.9365C220.476 25.4029 207.655 31.8922 193.967 41.2191C190.998 43.2683 173.973 55.0385 157.71 72.3523C148.41 82.2308 121.139 115.755 106.925 160.313C88.9282 216.668 92.9742 279.04 117.854 343.645C120.035 349.293 119.877 355.704 116.856 360.932C116.226 362.036 115.464 363.087 114.57 364.111C108.685 370.784 98.4652 373.28 90.2155 371.809C71.7721 368.472 63.4699 345.169 61.8935 346.062C59.9231 347.165 74.5044 381.583 97.4931 411.061C104.429 419.941 110.446 426.246 113.677 429.53C114.544 430.371 125.999 441.852 138.347 450.68C149.382 458.562 161.257 464.447 172.081 468.782C171.941 469.518 171.766 470.253 171.556 470.989C190.026 478.818 210.308 483.547 232.377 484.467L268.791 481.209C268.818 481.209 277.251 480.447 277.304 480.447C277.356 480.447 286.263 479.633 286.289 479.633C289.092 479.247 291.903 478.853 294.723 478.45H294.749C311.406 475.298 365.213 463.291 396.03 434.943C432.812 401.051 254.341 17.127 254.341 17.127Z" fill="#1551D4"/>
<path d="M547.721 220.242C559.281 349.609 476.311 462.714 362.419 472.881C236.52 484.126 146.825 386.444 135.265 257.077C123.705 127.736 180.874 14.0537 320.33 1.73181C447.227 -9.46038 536.187 90.9015 547.721 220.242Z" fill="#1E73FE"/>
<path d="M474.758 55.8105C506.627 93.4331 526.778 144.008 531.822 200.206C532.4 206.826 532.733 213.395 532.821 219.91C532.873 222.932 528.433 223.247 528.013 220.252C527.995 220.094 527.978 219.945 527.96 219.805C515.349 129.584 451.296 63.9551 384.931 73.2294C318.54 82.5036 274.954 163.187 287.565 253.408C300.175 343.629 364.202 409.232 430.593 399.957C430.751 399.94 430.909 399.922 431.066 399.905C439.579 398.67 443.914 409.705 436.768 414.486C411.808 431.143 383.092 441.81 351.985 444.595C240.825 454.526 158.802 377.205 136.522 268.909C152.339 392.338 240.352 483.794 362.389 472.89C476.282 462.723 559.251 349.619 547.691 220.252C541.806 154.228 515.743 95.7451 474.758 55.8105Z" fill="#1551D4"/>
<path d="M511.331 220.302C518.713 303.034 476.414 374.418 416.854 379.751C357.267 385.058 302.988 322.292 295.605 239.56C288.223 156.8 330.522 85.4173 390.082 80.1102C449.642 74.7768 503.922 137.542 511.331 220.302Z" fill="#000371"/>
<path fill-rule="evenodd" clip-rule="evenodd" d="M409.862 385.51C350.38 385.51 297.519 322.219 290.189 240.038C282.544 154.441 327.129 80.2732 389.605 74.6771C452.056 69.1073 509.094 134.211 516.739 219.808C524.385 305.404 479.773 379.599 417.323 385.169C414.827 385.379 412.331 385.51 409.862 385.51ZM397.146 85.2388C394.956 85.2388 392.758 85.3351 390.551 85.5277C334.091 90.5721 293.92 159.459 301.014 239.066C307.845 315.598 355.924 374.633 409.783 374.633C411.972 374.633 414.162 374.537 416.351 374.344C472.837 369.3 513.008 300.413 505.889 220.78C499.058 144.247 451.005 85.2388 397.146 85.2388Z" fill="#000371"/>
<path d="M248.232 50.5107C248.232 50.5107 199.837 73.9197 189.249 138.551C187.752 173.52 231.549 180.613 244.659 142.702C255.536 111.175 270.327 84.1661 293.867 67.3515C313.152 47.5944 287.142 27.5746 248.232 50.5107Z" fill="white"/>
<path d="M227.34 223.834C228.68 239.046 218.381 252.367 204.299 253.628C190.217 254.889 177.685 243.592 176.345 228.38C174.979 213.194 185.304 199.847 199.386 198.586C213.468 197.325 225.974 208.623 227.34 223.834Z" fill="white"/>
<path d="M342.827 211.29C346.046 154.687 346.911 140.692 347.176 140.525C347.368 140.429 347.824 140.405 348.233 140.453C348.641 140.525 373.171 143.592 402.77 147.282C432.37 150.973 456.996 154.112 457.476 154.232C457.981 154.376 458.437 154.615 458.485 154.759C458.533 154.927 457.716 165.255 456.683 177.716C455.314 193.892 454.689 200.41 454.473 200.506C454.329 200.602 453.44 200.626 452.503 200.554C451.566 200.506 444.671 200.146 437.127 199.763C429.583 199.404 423.408 199.14 423.384 199.188C423.336 199.236 424.465 200.746 425.883 202.543C427.324 204.316 430.688 208.558 433.403 211.961C436.118 215.34 439.673 219.821 441.331 221.906C442.989 223.99 444.671 226.099 445.055 226.602C445.44 227.106 446.929 228.951 448.323 230.7C449.716 232.474 452.959 236.547 455.53 239.783C458.101 243.018 460.792 246.397 461.513 247.331C462.233 248.266 463.579 249.943 464.516 251.093C465.429 252.244 467.014 254.209 467.999 255.479C468.984 256.725 469.873 257.755 469.993 257.755C470.09 257.755 470.954 256.845 471.891 255.742C472.853 254.64 474.246 253.011 474.967 252.124C475.688 251.237 477.321 249.296 478.571 247.834C479.844 246.373 481.141 244.839 481.454 244.432C481.79 244.024 482.919 242.658 483.976 241.436C485.009 240.19 486.691 238.201 487.7 237.027C488.709 235.829 490.655 233.552 492.049 231.922L492.502 231.383C493.784 229.858 495.257 228.105 495.965 227.25C496.734 226.291 498.512 224.182 499.929 222.553C501.323 220.923 503.076 218.886 503.797 217.999C504.518 217.137 507.017 214.165 509.347 211.385C511.678 208.606 513.96 205.922 514.44 205.395C515.185 204.508 515.305 204.46 515.69 204.795C515.93 204.987 517.588 206.928 519.39 209.109C521.168 211.29 523.33 213.926 524.171 214.98C525.036 216.034 526.069 217.328 526.477 217.832C526.886 218.359 527.823 219.485 528.543 220.372C529.264 221.259 531.066 223.415 532.532 225.189C533.973 226.962 536.087 229.526 537.217 230.916C538.322 232.282 539.499 233.696 539.787 234.031C540.1 234.367 540.94 235.373 541.637 236.308C542.334 237.242 543.127 238.201 543.415 238.465C543.703 238.728 543.944 239.088 543.92 239.231C543.92 239.399 543.655 239.974 543.319 240.501C542.983 241.029 542.718 241.508 542.718 241.58C542.718 241.652 541.902 243.066 540.892 244.743C539.883 246.444 538.778 248.29 538.442 248.889C538.105 249.488 537.649 250.255 537.409 250.614C537.144 250.998 536.952 251.333 536.952 251.405C536.952 251.477 536.592 252.1 536.159 252.771C535.727 253.466 533.757 256.797 531.811 260.152C529.841 263.507 527.63 267.269 526.886 268.491C526.141 269.713 525.42 270.696 525.3 270.672C525.18 270.672 522.633 267.964 519.654 264.681C516.675 261.374 513.912 258.354 513.528 257.971C512.951 257.42 512.759 257.324 512.542 257.564C512.398 257.731 510.284 260.367 507.858 263.387C505.407 266.406 503.197 269.186 502.956 269.522C502.692 269.881 500.097 273.116 497.19 276.711L497.183 276.72C494.278 280.311 491.376 283.901 490.751 284.691C490.127 285.505 489.19 286.68 488.661 287.351C488.157 287.998 487.076 289.364 486.259 290.346C485.466 291.329 483.496 293.797 481.862 295.834C480.252 297.847 478.547 299.98 478.09 300.531C477.634 301.082 474.751 304.676 471.723 308.511C468.36 312.752 466.029 315.484 465.765 315.484C465.525 315.508 464.179 314.19 462.522 312.345C460.984 310.62 458.678 308.055 457.428 306.642C456.179 305.252 452.767 301.417 449.86 298.134C446.953 294.851 442.701 290.059 440.394 287.47C438.088 284.906 435.445 281.935 434.508 280.88L434.382 280.739C433.458 279.699 432.244 278.333 431.601 277.645C430.952 276.902 429.27 275.033 427.877 273.452C426.483 271.894 424.369 269.522 423.168 268.204C421.991 266.862 419.132 263.674 416.825 261.11C414.543 258.546 412.092 255.79 411.396 255C410.723 254.209 407.792 250.902 404.885 247.667C402.002 244.432 398.085 240.022 396.163 237.865C394.241 235.733 391.671 232.833 390.445 231.419C389.196 230.029 388.115 228.855 388.043 228.807C387.947 228.783 387.106 240.046 386.145 253.849C385.064 269.713 384.319 279.059 384.151 279.203C384.007 279.323 373.916 280.162 361.735 281.024C349.554 281.911 339.439 282.558 339.271 282.462C339.103 282.39 338.935 282.198 338.887 282.079C338.815 281.959 340.593 250.087 342.827 211.29Z" fill="#1551D4"/>
<path fill-rule="evenodd" clip-rule="evenodd" d="M702.219 368.001C702.035 385.026 695.913 401.026 684.984 413.059C675 424.067 662.1 430.609 648.202 431.844C646.38 432.019 644.541 432.089 642.685 432.054C617.988 431.765 597.023 414.662 588.615 390.753C571.801 388.074 555.144 374.937 536.201 360.014C532.681 357.229 529.081 354.418 525.456 351.607L522.776 349.558C501.968 333.715 478.979 318.635 452.181 314.221C445.744 313.196 439.097 312.75 432.187 313.065C359.123 316.375 246.334 413.558 245.23 414.557C244.95 414.784 244.67 414.994 244.39 415.187C236.49 420.95 228.635 426.222 220.823 431.003C187.956 451.128 156.087 462.609 125.505 465.342C113.157 466.445 101.019 466.13 89.1176 464.37C47.3964 458.222 13.8199 428.718 3.54722 389.203C-5.62197 353.84 3.23195 314.116 27.2453 282.983C37.0975 270.214 48.8677 259.469 62.2143 250.956C82.8121 237.794 107.114 229.912 133.834 227.889C133.886 235.954 134.254 244.125 134.885 252.349C109.663 254.398 87.1209 262.569 68.8088 276.125V276.152C60.4803 282.3 53.0188 289.603 46.6083 297.932C27.1664 323.127 19.9414 354.944 27.2453 383.056C35.022 413.033 60.7168 435.443 92.6907 440.173C126.504 445.164 163.207 436.258 202.064 413.716C211.128 408.461 220.297 402.471 229.598 395.719C238.557 387.995 351.267 292.257 431.084 288.631C442.46 288.106 453.205 289.183 463.399 291.469C489.541 297.354 511.899 311.094 531.419 325.492C532.61 326.368 533.784 327.235 534.94 328.093C540.641 332.375 546.106 336.684 551.334 340.809C563.525 350.425 575.242 359.647 584.753 364.06C585.489 347.981 591.532 332.98 601.909 321.525C613.207 309.071 628.235 302.319 644.208 302.503C660.209 302.713 675.053 309.807 686.061 322.523C696.701 334.819 702.429 350.95 702.219 368.001ZM677.575 362.852C676.76 353.656 673.292 345.144 667.539 338.523C661.207 331.193 652.8 327.095 643.946 326.989C642.947 326.972 641.949 327.007 640.951 327.095C633.148 327.804 625.818 331.587 620.037 337.972C613.496 345.197 609.66 354.786 609.187 365.19C609.134 365.742 609.134 366.32 609.134 366.872C609.029 375.069 611.026 382.74 614.547 389.151C620.563 400.133 631.02 407.463 642.974 407.594C651.854 407.726 660.34 403.811 666.856 396.612C673.765 389.019 677.627 378.747 677.759 367.686C677.776 366.057 677.715 364.446 677.575 362.852Z" fill="white"/>
<path d="M677.726 367.751C677.647 374.503 676.176 380.966 673.443 386.72C673.478 386.685 673.504 386.659 673.522 386.641C680.432 379.022 684.32 368.749 684.451 357.715C684.469 356.086 684.408 354.475 684.268 352.881C683.427 343.659 679.959 335.147 674.231 328.552C667.873 321.222 659.492 317.097 650.612 316.992C649.614 316.992 648.615 317.036 647.617 317.124C639.84 317.807 632.51 321.59 626.704 327.974C624.05 330.917 621.87 334.28 620.136 337.905C625.916 331.6 633.193 327.843 640.918 327.16C641.916 327.072 642.914 327.037 643.913 327.055C652.767 327.16 661.174 331.258 667.506 338.588C673.259 345.209 676.727 353.721 677.542 362.917C677.682 364.511 677.743 366.122 677.726 367.751Z" fill="#B3B3D4"/>
<path d="M133.789 227.986C133.842 236.052 134.21 244.223 134.84 252.446C109.619 254.496 87.0765 262.666 68.7644 276.223C82.9517 256.308 62.1699 251.054 62.1699 251.054C82.7678 237.891 107.07 230.009 133.789 227.986Z" fill="#B3B3D4"/>
</svg>
